<svg version="1.1" xmlns="http://www.w3.org/2000/svg" viewBox="0 0 240 240" width="240" height="240">
  <!-- svg-source:excalidraw -->
  
  <defs>
    <style>
      @font-face {
        font-family: "Virgil";
        src: url("https://excalidraw.com/Virgil.woff2");
      }
      @font-face {
        font-family: "Cascadia";
        src: url("https://excalidraw.com/Cascadia.woff2");
      }
    </style>
  </defs>
  <g stroke-linecap="round" transform="translate(10 10) rotate(0 110 110)"><path d="M24.66 39.99 C24.66 39.99, 24.66 39.99, 24.66 39.99 M24.66 39.99 C24.66 39.99, 24.66 39.99, 24.66 39.99 M8.75 69.8 C29.09 42.95, 50.33 20.21, 55.57 11.73 M11.14 65.09 C24.67 51.71, 37.68 36.08, 57.91 13.5 M7.55 77.65 C30.47 58.58, 47.48 36.69, 70.6 11.96 M9.87 79.73 C27.62 62.37, 41.14 44.94, 72.92 10.92 M10.75 91.83 C28.6 72.53, 47.97 43.44, 85.35 1.53 M7.72 93.93 C33.72 63.24, 63.7 30.82, 87.4 4.82 M2.95 119.01 C32.36 79.28, 66.76 47.43, 98.55 -0.83 M-1.17 115.64 C33.61 77.48, 67.89 35.92, 100.6 4.23 M3.41 126.07 C38.62 89.84, 67.17 49, 106.6 0.79 M4 127.74 C39.58 81.23, 80.27 35.63, 108.29 4.33 M0.53 138.29 C38.59 93.79, 82.11 49.89, 119.45 6.68 M3.55 136.98 C32.28 104.6, 61.42 68.21, 118.94 2.27 M9.74 146.24 C44.59 103.25, 83.36 52.96, 129.1 7.37 M7.49 145.51 C40.56 100.93, 79.64 59.11, 128.53 5.75 M10.82 155.98 C52.23 111.03, 89.61 63.22, 136.65 5.98 M7.14 155.76 C57.05 97.59, 109 40.51, 139.95 8.09 M14.93 163.16 C41.64 128.53, 75.15 92.47, 147.95 8.48 M14.51 161.47 C47.73 122.46, 79.72 87.29, 145.23 9.07 M22.34 168.12 C65.98 117.79, 108.65 73.69, 155.35 12.36 M18.63 168.43 C59.96 121.36, 102.11 76.66, 154.21 12.56 M23.03 174.5 C83.02 115.38, 132.7 46.34, 157.88 20.15 M24.39 175.74 C56.22 133.7, 89.12 95.82, 162.8 18.52 M28.01 182.9 C58.3 151.01, 88.83 114.94, 165.85 20.96 M27.29 182.74 C81.96 121.97, 133.93 61.91, 170.67 20.5 M33.95 185.09 C86.96 129.92, 131.04 72.77, 174.06 26.38 M32.09 187.1 C71.67 146.22, 107.2 105.19, 177.48 22.62 M42.3 195.63 C85.98 138.37, 135.69 83.74, 181.7 31.49 M41.86 194.41 C85.97 135.91, 133.18 81.82, 181.61 29.17 M44.87 199.19 C77.27 163.87, 114.43 121.96, 188.37 33.53 M47.64 197.42 C102.09 135.51, 157.75 67.79, 188.73 34.35 M55.99 202.44 C87.23 164, 122.23 128.14, 192.24 43.65 M52.01 202.48 C102.07 147.89, 147.2 95.54, 192.89 41.31 M56.99 208.53 C106.05 151.4, 154.78 97.76, 196.14 47.03 M59.33 208.06 C98.95 162.27, 136.98 120.11, 198.6 45.86 M64.48 213.09 C116.25 157.16, 162.4 97.32, 204.23 50.49 M65.58 210.02 C104.4 169.45, 139.47 129.44, 203.68 53.03 M72.28 215.14 C104.8 182.51, 132.91 146.62, 206.2 57.45 M74.09 216.82 C106.9 172.22, 139.99 130.07, 210.17 61.47 M80.18 217.21 C118.86 172.89, 150.32 129.59, 212.45 69.98 M80.8 216.51 C114.86 184.49, 141.01 150.54, 214.11 69.38 M89.18 220.79 C139.2 162.42, 183.85 112.16, 213.34 72.83 M90.75 219.05 C122.88 181.36, 154.62 145.46, 215.66 76.04 M99.8 218.34 C141.05 167.85, 184.91 121.01, 218.19 87.96 M100.63 223.03 C133.75 183.29, 168.62 141.82, 220.2 84.25 M107.8 225.12 C146.09 186.93, 180.73 144.14, 219.27 94.33 M109.81 222.75 C146.72 188.09, 178.05 150.08, 218.02 96.63 M117.24 219.62 C147.37 190.23, 177.4 157.18, 219.98 105.49 M119.91 223.54 C157.29 186.69, 189.13 146.31, 221.33 106.37 M133.69 217.18 C158.21 190.26, 185.28 161.67, 219.97 122.73 M132.38 220.11 C160.65 188.88, 189.4 154.64, 219.69 121.12 M143.92 219.12 C167.35 194.73, 188.63 169.11, 226.89 124.69 M146.4 216.32 C173.11 185.27, 202.26 152.2, 224.06 125.2 M169 201.83 C177.97 189.51, 189.37 181.52, 215.17 145.59 M168.43 202.96 C180.37 187.35, 195.42 171.14, 219.89 144.62 M31.23 186.61 C31.23 186.61, 31.23 186.61, 31.23 186.61 M31.23 186.61 C31.23 186.61, 31.23 186.61, 31.23 186.61 M70.11 208.42 C44.06 191.83, 24.45 170.84, 8.88 157.56 M68.74 209.55 C50.49 193.63, 30.86 174.88, 9.63 154.33 M80.38 210.73 C65.85 188.04, 37.91 172.99, 2.47 143.43 M83.32 210.32 C53.5 184.89, 26.66 162.56, 5.19 141.44 M97.3 215.81 C80.82 194.09, 56.92 179.34, 5.53 126.99 M100.47 215.65 C74.18 190.75, 47.63 168, 1.91 130.07 M111.33 209.82 C79.28 183.77, 51.15 158.02, 1.05 118.31 M111.22 213.8 C73.88 182.91, 39.64 152.79, 1.1 118.67 M117.71 214.79 C97.84 190.98, 68.63 168.04, 7.89 109.27 M120.21 210.88 C97.35 191.76, 71.11 170.87, 3.53 111.7 M128.22 211.05 C105.25 186.5, 76.71 161.72, 2.74 98.1 M131.66 212.01 C95.68 180.44, 64.87 153.78, 7.76 100.82 M143.88 216.01 C110.81 184.76, 85 159.3, 8.75 89.79 M146.46 212.73 C98.48 171.06, 51.55 131, 8.94 92.04 M155.93 211.24 C106.42 166.36, 54.29 123.25, 11.72 82.61 M153.47 208.82 C98.05 162.17, 44.17 116.12, 11.48 84.87 M161.48 205.57 C119.77 172.58, 79.36 138.28, 10.03 72.88 M161.4 204.08 C126.92 169.99, 89.55 138.95, 9.18 71.82 M170.36 201.48 C134.48 165.87, 95.51 138.29, 15.89 67.58 M168.32 199.58 C107.68 148.56, 50.55 98.65, 14.93 64.1 M174.7 198.43 C145.25 163.77, 112.46 138.14, 16.15 58.38 M174.29 193.3 C136.49 167.72, 103.93 137.12, 18.96 58.27 M183.4 193.51 C121.7 135.41, 63.26 87.28, 21.64 50.01 M180.78 190.74 C149.33 158.07, 115.81 128.56, 21.38 49.44 M186.26 185.73 C144.8 150.54, 97.26 110.13, 26.23 45.26 M187.15 184.48 C146.82 147.48, 102.65 110.46, 24.91 42.96 M194.69 176.19 C142.18 139.63, 95.66 96.91, 30.55 36.34 M194.7 178.29 C136.15 129.3, 76.86 79.15, 26.91 35.56 M198.34 171.06 C151.82 133.01, 106.38 99.53, 32.08 33.15 M198.7 173.03 C137.62 118.64, 77.94 66.4, 32.78 32.07 M205.79 169.36 C152.41 125.51, 106.32 82.05, 39.29 25.58 M203.02 167.22 C149.61 119.67, 98.6 76.86, 42.36 25.9 M212.87 162.75 C173.03 132.78, 139.64 105.67, 50.32 20.74 M209.7 160.98 C175.78 131.35, 143.93 104.21, 48.04 21.01 M213.85 149.83 C166.79 116.56, 125.27 78.62, 54.34 12.5 M211.26 151.72 C155.54 102.68, 101.9 52.99, 53.95 16.17 M214.38 144.71 C164.72 99.24, 114.26 52.65, 60.02 13.67 M214.43 143.22 C155.55 91.88, 91.97 41.08, 60.97 11.22 M216.03 138.19 C156.76 87.76, 105.25 36.35, 66.68 9.29 M215.97 137.26 C167.25 96.98, 120.34 53.31, 69.96 6.75 M216.73 127.33 C165.79 77.78, 108.62 26.17, 80.84 2.44 M221.87 129.26 C177.02 88.58, 133.28 50.36, 76.97 4.26 M223.29 119.84 C174.05 74.42, 131.34 34.94, 83.82 -0.32 M223.42 119.98 C186.63 88.45, 151.21 58.41, 86.32 -1.09 M218.23 111.88 C190.52 83.28, 167.37 64.44, 96.31 -3.98 M224.06 107.23 C194.35 82.47, 166.1 58.46, 96.76 1.19 M221.46 96.19 C194.8 69.19, 161.1 46.63, 105.93 -4.25 M223.33 96.39 C201.08 76.21, 175.12 55.99, 109.54 -1.88 M220.57 85.76 C184.24 57.88, 148.78 21.86, 119.88 4.54 M219.47 84.88 C187.37 54.42, 152.13 25.23, 123.3 0.01 M206.7 65.36 C182.01 42.31, 161.76 25.22, 132.82 1.03 M207.63 64.35 C183.05 45.26, 159.19 25.02, 134.32 0.8 M200.53 50.84 C193.24 43.04, 181.34 31.54, 164.07 15.43 M198.14 48.62 C189.83 39.16, 177.26 27.1, 160.03 11.27" stroke="#e64980" stroke-width="1" fill="none"></path><path d="M95.88 -0.24 C108.23 -3.66, 120.78 -1.67, 133.6 1.64 C146.42 4.94, 161.82 11.95, 172.79 19.59 C183.76 27.23, 191.84 36.54, 199.42 47.49 C206.99 58.44, 214.64 72.73, 218.22 85.3 C221.8 97.88, 222.59 110.12, 220.91 122.95 C219.23 135.77, 214.74 150.57, 208.13 162.25 C201.52 173.93, 191.98 184.22, 181.25 193.02 C170.52 201.83, 156.54 210.89, 143.74 215.06 C130.95 219.23, 117.32 218.68, 104.48 218.02 C91.65 217.36, 78.95 216.36, 66.73 211.11 C54.5 205.86, 40.8 195.61, 31.11 186.51 C21.43 177.41, 13.86 168.18, 8.61 156.49 C3.36 144.8, -0.15 129.59, -0.39 116.36 C-0.63 103.13, 3.01 89.83, 7.17 77.12 C11.32 64.42, 16.24 50.71, 24.55 40.11 C32.85 29.52, 40.45 20.41, 56.98 13.56 C73.51 6.7, 107.87 -0.32, 123.7 -1.01 C139.53 -1.71, 151.91 7.45, 151.96 9.37 M136.74 3.04 C149.33 3.71, 163.72 11.14, 174.32 18.54 C184.93 25.94, 193.53 36.53, 200.36 47.44 C207.19 58.34, 212.48 70.48, 215.3 83.98 C218.12 97.48, 219.1 115.21, 217.28 128.43 C215.45 141.65, 210.65 152.61, 204.35 163.3 C198.05 173.99, 189.15 184.46, 179.48 192.57 C169.81 200.68, 159.28 207.72, 146.3 211.96 C133.32 216.2, 114.88 218.68, 101.6 218.01 C88.31 217.34, 78.32 212.89, 66.6 207.94 C54.88 203, 40.78 196.92, 31.26 188.34 C21.73 179.76, 14.43 168.79, 9.47 156.45 C4.5 144.12, 1.82 128.12, 1.47 114.33 C1.11 100.55, 3.27 86.14, 7.35 73.75 C11.42 61.36, 17.68 50.51, 25.9 40 C34.12 29.49, 45.43 17.09, 56.66 10.72 C67.89 4.34, 79.72 2.83, 93.28 1.74 C106.84 0.66, 131.23 4.12, 138.03 4.22 C144.83 4.33, 134.54 1.28, 134.1 2.38" stroke="#ffffff" stroke-width="2" fill="none"></path></g><g transform="translate(15 107.5) rotate(0 105 12.5)"><text x="105" y="18" font-family="Virgil, Segoe UI Emoji" font-size="20px" fill="#ffffff" text-anchor="middle" style="white-space: pre;" direction="ltr">Circle</text></g></svg>