<svg version="1.1" xmlns="http://www.w3.org/2000/svg" viewBox="0 0 452 280.54706030074396" width="452" height="280.54706030074396">
  <!-- svg-source:excalidraw -->
  
  <defs>
    <style>
      @font-face {
        font-family: "Virgil";
        src: url("https://excalidraw.com/Virgil.woff2");
      }
      @font-face {
        font-family: "Cascadia";
        src: url("https://excalidraw.com/Cascadia.woff2");
      }
    </style>
  </defs>
  <g stroke-linecap="round"><g transform="translate(206.41451108048295 122.59082807998769) rotate(0 -38.30420638828275 -18.700706992553464)" fill-rule="evenodd"><path d="M-88.33 -70.15 C-88.33 -70.15, -88.33 -70.15, -88.33 -70.15 M-88.33 -70.15 C-88.33 -70.15, -88.33 -70.15, -88.33 -70.15 M-98.53 -55.4 C-91.28 -59.35, -87.59 -64.05, -75.8 -79.92 M-96.56 -54.32 C-91.68 -59.81, -86.74 -66.24, -75.77 -79.04 M-106.98 -38.28 C-89.52 -55.85, -69.21 -78.86, -62.22 -87.64 M-106.82 -37 C-88.99 -58.39, -71.41 -76.77, -60.5 -89.17 M-110.32 -27.26 C-89.44 -50.05, -70.76 -71.39, -52.16 -91.37 M-109.32 -27.21 C-89.56 -51.63, -68.75 -75.24, -52.48 -94 M-112.37 -19.16 C-87.41 -44.58, -64.68 -72.64, -43.14 -98.44 M-113.33 -17.51 C-97.97 -33.26, -84.39 -50.92, -42.49 -96.68 M-112.05 -9.44 C-90.69 -38.98, -65.39 -68.31, -34.45 -102.52 M-114.85 -10.3 C-85.38 -42.45, -57.19 -76.69, -35.44 -101.12 M-116.72 -1.36 C-84.71 -37.08, -60.18 -67.46, -27.34 -103.82 M-114.68 -2.34 C-91.54 -31.71, -66.99 -60.21, -27.34 -103.61 M-115.16 1.97 C-79.12 -36.83, -42.54 -78.78, -21.95 -104.65 M-114.16 2.04 C-84.31 -30.97, -54.23 -65.73, -20.93 -105.49 M-114.93 7.87 C-90.34 -19.64, -69.6 -45.6, -12.76 -105.89 M-113.27 7.93 C-82.14 -29.22, -50.92 -65.52, -13.92 -106.98 M-114.6 13.85 C-80.97 -24.95, -44.6 -63.32, -7.38 -107.76 M-113.63 14.32 C-92.48 -13.83, -67.4 -40.06, -8.54 -107.09 M-113.95 21.56 C-76.75 -25.94, -39.45 -68.9, -2.16 -106.81 M-113.44 20.86 C-77.31 -23.09, -40.34 -64.45, -1.82 -107.96 M-112.76 24.08 C-84.61 -10.46, -55.93 -44.56, 2.44 -107.89 M-112.99 25.87 C-80.4 -12.13, -48.65 -48.04, 4.16 -110.03 M-113.61 28.68 C-83.62 0.97, -56.24 -32.86, 7.63 -110.19 M-112.27 29.84 C-70.48 -17.22, -28.25 -64.96, 9.44 -109.33 M-112.77 35.54 C-79.59 2.01, -53.62 -30.61, 12.07 -107.51 M-110.55 34.92 C-65.65 -18.91, -17.84 -71.86, 13.08 -109 M-109.7 38.99 C-82.38 6.7, -56.96 -21.84, 20.42 -108.18 M-110.68 40.92 C-72.18 -3.83, -35.02 -44.97, 19.08 -108.5 M-111.7 45.29 C-74.61 7.03, -42.74 -32.42, 25.04 -108.99 M-110.59 47.51 C-76.92 7.5, -41.76 -32.04, 23.45 -106.97 M-109.44 49.46 C-56.16 -9.09, -7.09 -69.07, 27.39 -108.28 M-108.96 51.01 C-62.15 -3.39, -13.48 -56.65, 29.58 -106.6 M-106.8 56.52 C-73.52 12.13, -35.87 -27.68, 32.32 -105.73 M-108.62 56.68 C-61.31 2.3, -13.14 -52.39, 33.15 -106.88 M-106.37 58.43 C-64.58 14.12, -24.25 -34.72, 36.92 -104.03 M-105.48 60.76 C-56.88 2.33, -7.12 -55.43, 36 -104.03 M-104.56 65.07 C-59.17 14.12, -15.57 -36.78, 41.03 -102.89 M-105.08 64.59 C-62.58 18.19, -22.45 -29.53, 40.13 -101.87 M-101.85 68.63 C-55.72 12.94, -12.35 -38.69, 41.31 -98.71 M-102.11 67.44 C-72.99 33.05, -42.26 -1.9, 42.91 -98.43 M-97.35 69.8 C-44.03 6.99, 9.89 -54.02, 41.62 -89.02 M-98.23 70.8 C-66.48 33.1, -34.26 -5.08, 39.95 -89.88 M-96.02 74.67 C-52.94 24.68, -9 -28.29, 40.05 -84.48 M-96.05 74.11 C-56.74 26.87, -17.21 -18.02, 39.27 -83.49 M-91.83 73.35 C-57.19 35.81, -21.96 -8.39, 37.39 -73.19 M-91.66 73.32 C-43.51 16.8, 5.81 -40.79, 35.78 -71.8 M-86.44 70.7 C-47.11 27.8, -10.1 -14.69, 28.4 -60.67 M-85.15 71.28 C-60.47 43.6, -35.35 16.02, 29.23 -60.23 M-81.05 71.63 C-57.24 44.79, -31.82 17.92, 21.38 -47.54 M-80.61 72.19 C-40.97 25.35, 1.63 -23.2, 23.33 -46.23 M-69.65 66.73 C-45.5 41.98, -26.19 15.88, 15.94 -34.09 M-68.34 66.53 C-45.59 39.15, -21.63 10.73, 17.09 -33.79 M-43.54 43.55 C-28.31 22.58, -12.77 5.61, 9.51 -19.18 M-42.03 42.92 C-22.16 18.77, -0.11 -7.25, 10.51 -19.48 M-16.52 18.42 C-9.33 9.99, -8.76 5.63, 5.87 -4.77 M-14.77 16.83 C-11.5 10.76, -6.57 6.53, 4.26 -6.23 M-98.3 71.93 C-98.3 71.93, -98.3 71.93, -98.3 71.93 M-98.3 71.93 C-98.3 71.93, -98.3 71.93, -98.3 71.93 M-92.07 74.03 C-94.41 70.99, -95.06 69.21, -101.56 64.03 M-91.72 72.45 C-95.08 70.16, -97.25 67.05, -102.26 63.24 M-87.43 70.63 C-90.79 69.45, -94.98 62.88, -104.67 53.72 M-86.06 71.56 C-92.23 66.97, -98.59 60.41, -105.46 54.62 M-82.03 70.88 C-89.84 61.8, -94.6 57.99, -110.22 44.88 M-82.48 69.8 C-91.61 60.78, -101.46 53.16, -110.72 45.79 M-80.3 68.15 C-87.22 63.4, -94.64 55.29, -109.97 41.43 M-78.14 68.16 C-86.27 60.64, -94.4 54.22, -110.49 40.34 M-76.72 66.4 C-82.24 57.13, -91.87 53.5, -111.44 33.18 M-75.72 65.4 C-87.26 55.83, -99.76 43.75, -112.85 33.3 M-72.41 63.48 C-88.1 50.68, -102.71 35.84, -112.59 26.62 M-70.7 63.44 C-80.66 56.06, -88.67 48.22, -113.12 26.41 M-68.96 60.72 C-80.36 47.42, -95.53 37.3, -112.26 21.85 M-67.85 61.62 C-77.66 51.01, -89.9 42.75, -113.17 21.72 M-64.08 57.68 C-81.69 41.81, -102.1 25.16, -115.99 14.07 M-65.73 58.3 C-81.83 44.08, -98.57 30, -113.92 15.89 M-63.19 55.63 C-78.21 42.54, -96.44 27.44, -112.47 11.69 M-60.94 55.03 C-79.89 40.99, -96.65 25.57, -114.56 11.05 M-58.61 53.83 C-72.96 42.25, -87.91 28.83, -112.85 4.6 M-58.11 53.56 C-75.89 38.31, -90.54 23.95, -114.59 5.77 M-54.84 50.93 C-78.6 30.01, -101.36 10.5, -112.9 0.24 M-55.93 50.08 C-77.56 32.17, -98.29 13.34, -114.78 -0.06 M-53.8 46.5 C-65.05 35.81, -78.17 23.17, -113.85 -5.52 M-53.1 47.39 C-66.14 36.87, -79.95 23.78, -112.7 -5.65 M-50.84 44.53 C-69.16 26.86, -91.11 7.4, -114.84 -10.21 M-49.12 45.23 C-69.35 28.09, -87.49 12.23, -113.95 -10.35 M-47.97 42.96 C-70.5 20.8, -96.82 2.53, -112.43 -13.3 M-46.31 42.52 C-70.58 21.06, -95.51 0.9, -112.42 -13.47 M-43.12 39.1 C-68.68 18.58, -93.19 -1.45, -111.11 -19.29 M-43.72 39.56 C-58.52 26.85, -73.32 13.66, -111.57 -18.6 M-38.92 36.58 C-65.59 15.45, -92.67 -7.91, -108.77 -21 M-40.75 37.69 C-54.55 24.61, -69.22 12.91, -110.59 -22.15 M-36.89 33.4 C-64.5 11.63, -92.3 -13.32, -108.5 -27.24 M-38.05 34.12 C-52.93 22.85, -65.69 9.89, -109.01 -26.31 M-35.22 31.49 C-50.09 19.11, -61.53 5.08, -106.56 -32.78 M-34.05 32.23 C-55.48 13.35, -77.18 -5.39, -107.38 -32.2 M-30.54 30.23 C-51.35 10.56, -72.39 -7.79, -107.6 -34.13 M-31.52 29.86 C-51.05 13.66, -71.1 -4.63, -107.29 -34.97 M-28.16 26.55 C-44.35 13.93, -61.41 -0.65, -102.73 -40.73 M-28.46 26.13 C-44.54 11.67, -61.02 -2.73, -104.12 -40.17 M-27.54 25.18 C-45.31 6.23, -60.92 -9.4, -103.2 -41.39 M-26.46 24.43 C-41.14 8.02, -59.29 -5.41, -103.53 -43.52 M-23.81 19.39 C-43.92 5.9, -61.19 -15.36, -101.71 -46.86 M-22.85 21.96 C-42.64 2.39, -63.73 -16.91, -101.48 -46.66 M-21.31 17.25 C-52.72 -7.49, -82.22 -34.47, -100.61 -50.96 M-19.06 18.72 C-50.78 -7.81, -81.46 -35.83, -99.23 -51.56 M-15.74 13.72 C-44.5 -7.41, -71.61 -34.13, -96.19 -55.73 M-17.49 14.31 C-46.72 -10, -77.94 -36.79, -98.3 -54.94 M-12.02 12.19 C-32.58 -1.73, -48.16 -18.14, -95.15 -57.36 M-14.13 12.27 C-39.69 -9.01, -65.54 -32.82, -95.77 -59.39 M-9.99 9.98 C-31.28 -5.88, -46.82 -22.33, -93.85 -61.89 M-10.99 10.32 C-37.88 -14.91, -65.99 -38.33, -94.25 -62.4 M-6.63 6.48 C-34.19 -15.67, -62.76 -41.7, -89.86 -65.77 M-7.11 7.24 C-29.26 -9.78, -51.69 -30.28, -92.15 -66.08 M-5.62 5.37 C-38.31 -23.46, -70.55 -52.16, -88.88 -68.39 M-4.85 3.82 C-23.55 -11.03, -41.77 -25.22, -89.41 -69.05 M-2.8 3.38 C-26.47 -19.25, -52.54 -39.23, -86.31 -73.87 M-2.07 2.41 C-26.86 -17.78, -51.57 -40.16, -87.75 -71.34 M0.3 0.53 C-17.75 -17.02, -36.54 -34.18, -83.95 -73.59 M1.54 -0.11 C-26.82 -24.5, -55.14 -47.96, -84.2 -74.33 M1.51 -4.42 C-27.74 -32.59, -57.06 -58.82, -81.8 -77.97 M2.79 -4.12 C-26.78 -29.51, -56.67 -55.94, -81.56 -77.64 M5.71 -7.15 C-19.75 -31.84, -47.28 -53.7, -78.01 -82.39 M3.93 -7.71 C-16.62 -26, -37.76 -43.73, -79.2 -80.37 M7.87 -11.54 C-24.22 -39.47, -58.68 -67.95, -76.15 -82.94 M6.92 -11.67 C-17.43 -33.4, -40.75 -54.42, -74.98 -84.1 M5.55 -18.23 C-18.68 -38.87, -45.53 -59.19, -71.23 -87.64 M7.18 -15.32 C-13.47 -33.43, -33.14 -51.76, -72.09 -85.35 M10.37 -18.47 C-17.87 -42.14, -41.95 -65.69, -67.41 -86.92 M10.37 -19.57 C-18.95 -43.79, -48.19 -70.39, -69.49 -87.28 M12.03 -22.53 C-12.11 -43.93, -38.28 -67.21, -67.3 -92.1 M11.57 -22.66 C-5.57 -37.76, -22.35 -51.95, -65.94 -91.48 M13.81 -25.64 C-9.24 -45.17, -27.01 -64.7, -64.15 -92.61 M14.09 -27.23 C-11.36 -49.19, -35.04 -70.12, -62.97 -92.4 M16.33 -29.09 C-2.77 -48.56, -20.14 -61.22, -56.65 -95.77 M14.45 -30.79 C-10.3 -51.27, -35.38 -74.66, -58.43 -94.37 M18.01 -32.74 C-4.74 -51.71, -24.31 -69.67, -54.66 -97.32 M16.14 -35.4 C-7.42 -57.74, -33.07 -77.91, -54.93 -95.42 M18.88 -40.19 C2.47 -53.14, -12.09 -64.41, -48.46 -99.91 M18.58 -38.15 C1.41 -52.28, -15.86 -67.6, -49.88 -98.98 M20.04 -44.65 C-2.05 -59.54, -19.56 -76.45, -45.01 -98.25 M19.94 -42.21 C-3.32 -62.42, -24.68 -81.34, -46.49 -100.32 M23.65 -45.39 C3.87 -64.07, -14.93 -77.61, -44.18 -100.32 M22.33 -46.57 C6.87 -59.37, -7.15 -72.16, -42.75 -102.95 M24.47 -49.58 C7.05 -62.3, -9.62 -78.15, -39.26 -105.18 M24.57 -49.17 C11.37 -59.87, -0.39 -71.52, -38.67 -103.77 M25.56 -53.48 C14.8 -62.63, 1.31 -77.17, -32.98 -107.45 M25.2 -53.25 C10.78 -65.65, -4.43 -78.99, -35.08 -104.71 M26.85 -58.93 C14.12 -65.47, 3.92 -78.77, -29.97 -107.18 M28.21 -57.16 C9.12 -72.35, -10.98 -90.06, -30.83 -107.88 M29.57 -61.85 C9.96 -76.58, -6.03 -91.45, -24.3 -106.31 M28.81 -60.08 C10.35 -76.39, -7.01 -92.95, -25.06 -107.33 M32.01 -65.37 C15.23 -78.09, -2.87 -95.79, -21.95 -111.87 M30.41 -64.44 C10.72 -81.94, -9.34 -98.73, -20.47 -109.41 M33.09 -69.77 C16.48 -79.38, 3.9 -92.54, -15.07 -111.81 M31.41 -69.01 C13.26 -85.65, -4.44 -101.3, -16.26 -111.94 M31.52 -73.49 C17.32 -86.27, 2.57 -97.55, -9.99 -111.48 M33.62 -73.3 C22.37 -83.7, 9.31 -93.48, -10.96 -111.87 M36.34 -76.47 C22.23 -87.4, 10.08 -98.04, -6.71 -114.13 M36.11 -78.03 C23.88 -87.11, 11.26 -97.44, -4.62 -113.07 M37.43 -81.8 C27.14 -92.17, 16.42 -97.89, -0.4 -112.14 M36.89 -82.11 C24.31 -92.54, 9.91 -103.34, 0.93 -110.79 M39.24 -83.73 C28.28 -90.51, 23.2 -98.43, 9.34 -112.07 M37.93 -85.82 C27.98 -93.01, 19.52 -101.99, 8.07 -109.97 M38.31 -90.7 C33.01 -94.34, 27.86 -100.14, 13.75 -109.23 M37.9 -89.21 C31.37 -96.49, 22.61 -104.17, 15.85 -111.06 M39.74 -93.93 C35.34 -98.69, 30.25 -102.7, 24.14 -107.56 M37.96 -95.8 C32.72 -98.86, 27.73 -103.91, 22.58 -109.16 M40.55 -100.75 C37.08 -103.16, 33.53 -105.72, 27.53 -108.81 M40.35 -99.63 C36.96 -102.51, 34.28 -104.01, 28.37 -108.52" stroke="#15aabf" stroke-width="0.5" fill="none"></path><path d="M-0.35 1.12 C-15.42 13.29, -71.85 73.49, -91.16 73.71 C-110.47 73.93, -116.87 26.26, -116.21 2.43 C-115.56 -21.4, -100.62 -51.5, -87.23 -69.26 C-73.83 -87.02, -52.61 -97.19, -35.84 -104.14 C-19.07 -111.09, 0.76 -112.8, 13.38 -110.96 C26 -109.12, 41.97 -111.65, 39.9 -93.11 C37.83 -74.57, 7.44 -15.11, 0.96 0.3 M1.66 0.66 C-13.43 12.97, -71.9 75.2, -91.71 75.19 C-111.52 75.18, -117.47 25.02, -117.2 0.6 C-116.93 -23.82, -103.43 -53.88, -90.09 -71.33 C-76.74 -88.77, -54.09 -97.29, -37.13 -104.09 C-20.16 -110.89, -1.26 -113.81, 11.7 -112.12 C24.65 -110.44, 42.47 -112.66, 40.59 -93.95 C38.72 -75.24, 7.22 -15.76, 0.44 0.11" stroke="#ffffff" stroke-width="1" fill="none"></path></g></g><g stroke-linecap="round"><g transform="translate(204.7224103711883 124.85986480764294) rotate(0 61.13017551427106 -30.471814900763192)" fill-rule="evenodd"><path d="M49.59 -98.67 C49.59 -98.67, 49.59 -98.67, 49.59 -98.67 M49.59 -98.67 C49.59 -98.67, 49.59 -98.67, 49.59 -98.67 M40.66 -83 C46.07 -88.49, 50.79 -93.72, 54.92 -100.04 M41.74 -83.92 C47.65 -90.42, 52.68 -96.56, 55.8 -98.07 M33.99 -70.72 C46.46 -79.05, 53.48 -92.16, 62.29 -97.75 M35.28 -70.26 C39.95 -76.8, 47.5 -82.65, 60.77 -99.07 M20.15 -45.68 C34.42 -63.32, 50.19 -80.35, 65.76 -95.51 M20.19 -47.34 C34.85 -65, 50.32 -81.47, 63.12 -96.41 M13.98 -33.84 C29.74 -50.89, 42.82 -66.79, 65.87 -95.97 M15.63 -34.42 C36.17 -57.72, 54.85 -78.84, 67.63 -94.1 M11.04 -24.87 C24.54 -41.55, 38.17 -56.91, 68.97 -90.42 M10.17 -22.36 C31.57 -45.96, 50.81 -71.11, 70.37 -91.42 M6.45 -8.94 C17.73 -28.77, 34.29 -44.74, 73.35 -89.34 M5.47 -11.13 C30.24 -40.89, 55.81 -70, 73.57 -88.2 M-0.06 -0.15 C20.06 -19.61, 36.98 -42.64, 76.69 -85.86 M0.02 0.02 C23.39 -25.22, 45.09 -49.5, 75.85 -87.02 M3.87 2.67 C23.43 -22.96, 44.55 -43.06, 79.62 -83.29 M3.94 2.99 C31.35 -30.16, 59.5 -61.39, 78.53 -83.55 M7.79 2.4 C23.8 -13.34, 40.22 -32.73, 81.16 -82.62 M8.26 2.51 C34.48 -27.71, 62.52 -59.35, 81.83 -80.7 M13.53 5.43 C35.57 -24.81, 61.94 -54.06, 86.28 -78 M12.83 5.2 C28.49 -14.82, 46.5 -35.77, 85.13 -78.96 M15.49 5.98 C38.98 -22.36, 62.61 -50.65, 89.37 -76.27 M17.28 7.15 C42.06 -22.95, 69.14 -52.12, 87.23 -76.59 M18.87 8.59 C39.37 -10.5, 54.12 -32.26, 89.07 -71.67 M20.04 7.67 C36.5 -9.54, 52.24 -28.37, 89.93 -73.13 M23.76 11.41 C37.69 -7.69, 52.87 -23.88, 94.41 -68.37 M23.15 9.77 C47.03 -17.34, 71.83 -46.31, 92.92 -70.68 M26.67 12.86 C53.25 -20.54, 83.49 -48.98, 95.75 -66.71 M28.59 12.16 C46.5 -10.08, 67.61 -33.25, 95.42 -66.87 M30.04 14.5 C51.43 -11.07, 71.81 -30.49, 96.13 -63.21 M32.52 13.29 C55.73 -12.97, 79.3 -41.53, 98.4 -61.6 M34.4 16.17 C55.29 -8.93, 73.97 -32.9, 98.88 -58.06 M36.15 13.79 C56.16 -7.93, 77.76 -31.24, 100.77 -59.36 M40.54 14.57 C61.4 -10.97, 86.97 -38.59, 103.74 -54.87 M40.71 16.27 C63.78 -8.95, 86.77 -37.33, 102.43 -55.62 M42.31 17.71 C68.66 -9.77, 90.4 -33.6, 105.05 -51.17 M44.99 17.05 C65.25 -8.38, 86.5 -33.13, 105.05 -52.17 M48.87 19.44 C60.23 5.37, 71.65 -8.38, 106.57 -49.15 M48.31 19.91 C65.72 -0.09, 81.96 -19.84, 107.75 -48.6 M52.75 22.68 C73.18 -7.06, 97.89 -32.78, 108.98 -47.21 M51.38 20.58 C73.01 -3.73, 94.53 -27.48, 109.3 -44.51 M55.41 22.17 C71.01 2.27, 89.27 -14.11, 113.37 -43.37 M56.55 22.76 C76.13 -0.67, 94.92 -23.98, 112.4 -41.8 M60.77 23.26 C77.73 4.07, 91.61 -12.95, 112.78 -38.86 M60.15 24.12 C74.43 5.8, 90.7 -12.61, 113.89 -38.92 M63.29 25.08 C83.47 5.19, 97.07 -13.34, 115.65 -33.58 M63.26 24.76 C81.6 4.51, 98.27 -15.62, 117.04 -35.09 M66.22 27.14 C77.25 14.8, 88.29 -0.18, 117.34 -33.57 M66.8 27.03 C85.04 7.39, 103.52 -13.4, 117.78 -32.6 M69.71 28.49 C87.41 11.11, 104.61 -10.78, 118.33 -25.07 M70.27 27.97 C89.45 8.49, 106.52 -12.9, 119.64 -27.48 M76.33 30.52 C86.13 17.13, 94.77 7, 120.3 -23.25 M76.12 29.33 C91.86 11.16, 106.66 -5.57, 120.6 -23.09 M80.61 31.71 C92.2 14.84, 107.76 -4.48, 122.41 -15.42 M79.98 31.57 C93.47 16.78, 105.08 0.22, 122.11 -18.07 M85.11 34.85 C94.3 16.59, 107.7 5.06, 124.03 -12.83 M83.53 32.37 C98.04 15.12, 114.18 -1.89, 122.57 -10.85 M87.36 32.8 C97.16 20.04, 110.7 10.86, 123.64 -4.92 M88.12 33.62 C100.69 21.04, 112.72 7.31, 122.98 -6.64 M93.3 34.8 C101.68 26.08, 112.17 13.34, 122.31 1.24 M91.04 34.92 C102.68 24.51, 112.76 11.11, 121.19 0.32 M94.77 36.6 C106.26 26.15, 112.24 16.8, 119.85 8.12 M95.71 37.07 C102.26 30.6, 106.47 24.19, 120.75 7.21 M101.06 37.57 C103.56 34.61, 110.91 26.93, 120.33 15.03 M99.98 38.34 C104.65 32.7, 110.53 26.14, 121.24 13.21 M105.68 37.39 C113.4 29.89, 118.03 24.98, 125.54 15.85 M105.69 38.46 C111.15 29.68, 117.84 23.48, 124.45 16.43 M111.17 39.52 C112.58 33.84, 118.73 31.84, 122.02 25.79 M110.28 39.32 C115.27 33.9, 118.38 28.15, 122.13 25.93 M0 0 C0 0, 0 0, 0 0 M0 0 C0 0, 0 0, 0 0 M10.58 4.94 C7.79 2.14, 6.68 1.12, 2.22 -4.46 M11.12 4.69 C8.22 1.83, 6.6 0.64, 2.14 -3.25 M22.01 10.64 C17.22 4, 11.17 -1.59, 1.42 -7.2 M22.63 9.3 C15.92 3.48, 9.82 -2.07, 3.24 -7.75 M33.25 13.9 C26.42 4.56, 17.01 -1.19, 5.9 -10.95 M32.65 12.61 C26.24 6.86, 18.27 -0.66, 5.26 -12.09 M44.74 17.79 C30.83 5, 15.86 -5.66, 6.33 -15.54 M44.47 16.58 C30.19 6.33, 16.16 -6.63, 7.5 -14.49 M56.54 22.19 C39.2 8.41, 23.43 -3.86, 8.82 -17.78 M55.69 22.07 C38.5 6.52, 19.77 -10.22, 8.52 -19.84 M65.39 26.87 C54.55 15.87, 41.02 4.09, 9.16 -24.81 M66.28 26.95 C48.32 9.68, 27.75 -6.96, 9.03 -22.99 M76.72 31.86 C61.92 17.75, 46.06 2.11, 11.33 -26.98 M77.41 29.74 C59.75 15.13, 42.51 -1.81, 11.19 -26.35 M80.79 28.17 C56.26 5.08, 35.49 -14.1, 14.44 -29.25 M80.35 27.58 C65.64 14.51, 52.11 2.03, 14.27 -30.08 M88.71 30.47 C60.12 5.66, 32.74 -19.29, 15.3 -36.15 M89.17 30.12 C62.52 5.18, 34.12 -18.16, 16 -33.73 M100.89 36.19 C69.95 6.41, 35.58 -20.28, 18.38 -40.49 M102 35.96 C75.75 14.27, 52.12 -8.45, 17.23 -37.81 M110.14 39.11 C89.46 18.55, 64.53 -2.84, 18.35 -44.3 M110.86 37.36 C89.02 19.68, 66.54 -0.6, 19.28 -43.38 M114.73 35.13 C96.77 20.97, 75.88 3.11, 19.01 -46.26 M115.47 37.4 C79.46 5.4, 42.45 -26.64, 19.58 -46.26 M119.87 36.05 C85.37 7.22, 51.44 -25.02, 23.85 -50.55 M119.5 34.9 C82.72 3.36, 45.39 -28.62, 23.02 -50.66 M119.67 30.24 C88.49 0.07, 54.19 -26.3, 22.8 -55.03 M119.24 30.4 C92.5 7.52, 66.01 -15.81, 23.36 -54.07 M122.43 23.69 C98.07 6.03, 75.95 -14.21, 27.68 -58.73 M121.68 26.45 C101.14 7.15, 82.35 -10.42, 25.55 -57.54 M119.36 18.59 C102.38 2.84, 77.99 -16.52, 27.76 -61.36 M121.94 21.4 C97.01 -0.72, 70.98 -24.1, 27.96 -59.89 M121.36 14.41 C91.35 -12.74, 59.23 -41.37, 29.21 -62.79 M122.83 15.82 C93.18 -10.26, 61.1 -36.06, 28.6 -63.97 M121.96 12.51 C99.04 -8.44, 70.75 -30.71, 30.63 -66.56 M122.55 12.24 C105.1 -5.06, 86.03 -21.34, 31.42 -68.95 M123.15 6.56 C89.54 -20.08, 54.46 -50.7, 34.55 -71.4 M123.23 6.92 C103.05 -11.61, 80.58 -30.42, 32.51 -72.51 M122.81 -0.94 C99.26 -17.35, 75.94 -39.49, 34.91 -74.69 M123.16 1.57 C100.2 -18.56, 77.91 -40.11, 34.4 -75.14 M121.28 -3.55 C99.53 -25.58, 72.6 -46.44, 36.57 -80 M122.04 -4.25 C89.53 -33.4, 54.56 -62.68, 36.26 -78.35 M122.04 -12.25 C90.88 -38.62, 60.21 -62.78, 38.84 -84.56 M120.49 -11.32 C89.63 -37.66, 60.77 -63.92, 38.18 -82.96 M122.02 -17.09 C96.09 -41.48, 71.65 -61.13, 38.15 -87.43 M121.05 -17.08 C91.02 -43.59, 59.94 -69.78, 40.68 -87.96 M121.79 -23.27 C103.97 -38.59, 85.83 -52.63, 43.42 -89.72 M121.15 -22.45 C92.57 -47.91, 64.08 -72.4, 42.68 -89.53 M121.63 -26.67 C95 -47.89, 70.04 -71.88, 44.67 -91.99 M121.93 -26.21 C98.12 -46.11, 74.62 -67.74, 45.01 -93.16 M119.92 -33.26 C91.49 -57.41, 65.96 -78.02, 45.9 -97.17 M119.36 -35.06 C100.66 -52.08, 82.32 -68.34, 47.93 -95.3 M109.75 -46.71 C94.33 -63, 77.22 -76.66, 51 -99.35 M109.62 -48.03 C93.49 -60.01, 78.39 -73.11, 49.84 -98.97 M98.7 -60.67 C82.94 -76.57, 68.41 -89.37, 52.03 -102.63 M101.61 -61.5 C83.43 -77.14, 64.36 -91.93, 54.33 -101.3" stroke="#fa5252" stroke-width="0.5" fill="none"></path><path d="M1.12 0.75 C8.47 -14.94, 32.36 -79.84, 44.76 -94.5 C57.16 -109.17, 65.46 -94.23, 75.52 -87.23 C85.59 -80.23, 97.94 -63.1, 105.15 -52.48 C112.35 -41.87, 116.42 -36.51, 118.76 -23.53 C121.09 -10.54, 122.16 15.07, 119.17 25.43 C116.18 35.78, 120.65 42.66, 100.83 38.59 C81.02 34.52, 17.21 7.43, 0.3 1.02 M0.25 0.1 C7.37 -15.4, 31.25 -78.34, 43.76 -93.19 C56.26 -108.04, 64.92 -96.01, 75.27 -89.01 C85.63 -82.02, 98.33 -61.66, 105.88 -51.2 C113.44 -40.73, 118.17 -38.84, 120.6 -26.23 C123.03 -13.63, 124.17 13.77, 120.46 24.44 C116.74 35.1, 118.5 41.62, 98.32 37.75 C78.15 33.88, 15.65 7.7, -0.57 1.21" stroke="#ffffff" stroke-width="1" fill="none"></path></g></g><g stroke-linecap="round"><g transform="translate(205.62665322565317 124.91213350349406) rotate(0 -44.452234967658 58.59495236485003)" fill-rule="evenodd"><path d="M-86.76 74.3 C-86.76 74.3, -86.76 74.3, -86.76 74.3 M-86.76 74.3 C-86.76 74.3, -86.76 74.3, -86.76 74.3 M-87.78 78.5 C-82.54 76.76, -80.84 74.35, -74.24 64.54 M-85.81 79.57 C-83.15 76.66, -80.51 72.88, -74.21 65.42 M-86.39 84.29 C-74.59 73.36, -60.04 56.98, -56.06 51.53 M-86.23 85.58 C-74.08 70.71, -62.06 58.73, -54.35 50.01 M-82.52 87.02 C-65.81 68.99, -51.35 52.51, -36.82 37.24 M-81.52 87.06 C-66.26 67.86, -50.02 49.5, -37.15 34.61 M-78.66 88.32 C-56.66 66.3, -36.85 41.6, -17.96 18.85 M-79.63 89.97 C-65.99 76.25, -54.22 60.66, -17.31 20.61 M-74.4 93.51 C-53.25 64.21, -28.15 35.12, 2.54 1.18 M-77.2 92.65 C-47.97 60.78, -20.01 26.8, 1.55 2.58 M-75.14 97.06 C-47.61 66.44, -27.43 41.07, 0.46 10.45 M-73.1 96.08 C-53.71 71.26, -33.03 47.21, 0.47 10.66 M-70.3 96.61 C-43.8 68.75, -16.6 37.59, -2.02 18.68 M-69.3 96.69 C-47.56 72.76, -25.56 47.3, -0.99 17.84 M-67.44 99.5 C-51.15 81.38, -38.6 64.85, -0.7 26.49 M-65.78 99.56 C-45.75 75.79, -25.91 52.58, -1.86 25.41 M-63.17 100.95 C-44.7 79.17, -23.08 57.76, -2.54 32.92 M-62.21 101.42 C-51.09 85.44, -36.41 71.18, -3.69 33.6 M-59.25 104.89 C-41.22 80.29, -23.46 59.81, -5.19 42.94 M-58.74 104.19 C-41.61 82.17, -23.27 62.25, -4.86 41.78 M-55.43 104.39 C-43.88 89.85, -32.1 75.18, -7.8 50.16 M-55.66 106.18 C-41.43 89.41, -28.49 75.14, -6.08 48.01 M-53.66 105.97 C-41.4 97.4, -31.28 83.43, -9.17 55.4 M-52.31 107.13 C-37.2 90.16, -21.05 72.41, -7.37 56.26 M-49.53 109.05 C-37.49 98.1, -31.69 88.7, -11.3 65.63 M-47.32 108.44 C-34.31 91.71, -18.85 75.96, -10.29 64.14 M-43.85 109.49 C-36.08 101.14, -31.28 96.33, -9.51 72.51 M-44.83 111.42 C-33.96 99.07, -24.33 89.6, -10.85 72.19 M-42.04 111.06 C-32.17 104.1, -28.17 96.36, -11.31 79.09 M-40.79 113.54 C-33.66 105.03, -25.59 96.76, -13.09 81.36 M-37.75 112.95 C-26.74 104.64, -20.65 93.64, -15.86 87.38 M-37.21 114.71 C-29.77 105.24, -20.45 97.6, -13.37 89.28 M-31.61 116.53 C-30.1 109.9, -24.55 107.53, -17.51 97.79 M-33.69 116.71 C-27.11 109.87, -20.56 103.16, -16.56 96.48 M-28.7 115.38 C-24.9 114.78, -23.36 110.64, -17.28 104.57 M-27.83 117.66 C-24.81 112.17, -21.32 107.65, -18.18 104.57 M-24.21 118.51 C-22.39 116.36, -20.83 114.22, -18.68 111.94 M-24.45 118.29 C-22.35 116.68, -21.26 114.7, -19.1 112.41 M-87.39 83.76 C-87.39 83.76, -87.39 83.76, -87.39 83.76 M-87.39 83.76 C-87.39 83.76, -87.39 83.76, -87.39 83.76 M-63.19 97.3 C-73.92 88.52, -83.78 83.1, -86.71 79.81 M-64.19 98.44 C-69.87 94.25, -75.71 89, -88.6 78.84 M-50.43 105.81 C-63.42 96.26, -75.4 84.02, -86.33 72.53 M-50.46 105.18 C-61.3 95.93, -71.7 87.76, -87.21 73.64 M-37.36 110.81 C-50.27 102.19, -62.93 87.09, -82.22 70.02 M-37.2 110.79 C-55.78 96.64, -73.6 79.84, -83.82 71.41 M-30.27 112.3 C-44.95 97.92, -61.33 82.72, -82.41 66.32 M-28.98 112.88 C-40.17 103.33, -51.29 94.28, -81.58 66.76 M-21.3 113.69 C-34.66 104.32, -46.7 93.35, -80.64 63.24 M-20.87 114.25 C-45.02 96.07, -66.73 74.84, -78.7 64.56 M-20.33 111.65 C-32.95 98.72, -49.94 85.28, -77.29 60.49 M-19.02 111.44 C-36.31 97.6, -52.55 83.18, -76.14 60.79 M-19.09 107.92 C-34.01 91.75, -48.69 78.88, -74.18 59.84 M-17.58 107.3 C-40.03 89.12, -60.31 68.83, -73.18 59.54 M-19.01 103.1 C-27.45 90.52, -42.45 81.54, -68.28 58.7 M-17.25 101.52 C-31.25 89.76, -43.42 80.46, -69.88 57.24 M-16.94 96.69 C-36.92 80.23, -56.28 66.99, -65.76 54.9 M-17.77 97.45 C-35.15 82.52, -51.57 67.15, -65.84 54.24 M-17.17 94.63 C-28.15 83.94, -36.62 74.84, -63.18 52.13 M-16.67 92.36 C-31.44 80.31, -44.34 67.33, -64.19 51 M-16.67 86.78 C-25.61 80.79, -35.26 69.47, -59.56 47.56 M-15.3 87.71 C-29.65 75.63, -44.39 61.79, -60.36 48.46 M-14.28 84.4 C-25.96 71.76, -34.67 64.51, -57.57 45.29 M-14.74 83.32 C-29.1 69.64, -44.27 57.39, -58.07 46.2 M-14.82 79.71 C-23.63 73.4, -32.89 63.68, -52.79 45.77 M-12.66 79.72 C-22.7 70.6, -32.7 62.56, -53.32 44.68 M-14.26 75.33 C-19.94 65.92, -29.72 62.16, -49.74 41.45 M-13.26 74.34 C-25.06 64.56, -37.8 52.26, -51.14 41.58 M-12.97 69.79 C-26.18 59.15, -38.25 46.51, -46.36 38.83 M-11.26 69.75 C-19.78 63.68, -26.32 57.12, -46.89 38.63 M-11.78 65.06 C-19.58 55.01, -31.09 48.07, -43.01 36.69 M-10.67 65.96 C-17.7 57.86, -27.11 52.06, -43.92 36.56 M-9.17 60.05 C-20.12 50.16, -33.81 39.34, -42.96 32.18 M-10.82 60.67 C-20.7 51.69, -31.27 42.97, -40.9 34.01 M-10.54 56.04 C-17.92 49.73, -28.54 41.25, -36.43 32.43 M-8.29 55.43 C-19.43 48.29, -28.31 39.72, -38.52 31.79 M-8.22 52.27 C-14.97 46.89, -22.48 39.93, -33.78 27.97 M-7.73 52 C-17.01 44.2, -23.32 37.08, -35.53 29.14 M-6.72 47.4 C-17.25 37.84, -26.87 29.75, -30.82 26.23 M-7.81 46.55 C-16.88 39.55, -25.32 31.42, -32.7 25.93 M-7.94 41 C-10.88 38.04, -15.4 32.87, -28.75 23.1 M-7.24 41.89 C-11.22 39.14, -16.1 33.81, -27.59 22.97 M-7.24 37.06 C-11.08 31.96, -18.28 25.32, -27.48 20.37 M-5.53 37.76 C-12.58 32.46, -17.47 28.14, -26.58 20.23 M-6.64 33.52 C-11.13 26.91, -19.63 24.14, -22.8 19.25 M-4.98 33.09 C-11.59 27.33, -18.51 22.82, -22.79 19.09 M-4.06 27.7 C-9.72 23.82, -14.76 20.71, -18.46 15.88 M-4.66 28.16 C-7.76 25.83, -11.21 22.51, -18.92 16.58 M-1.52 23.95 C-7.28 20.87, -13.78 15.38, -15.48 14.64 M-3.17 24.94 C-5.29 21.75, -8.14 20.2, -17.11 13.6 M-1.08 19.62 C-5.57 17.82, -10.06 13.33, -12.91 10.55 M-1.95 20.16 C-4.76 18.87, -5.76 16.6, -13.29 11.25 M-1.85 15.08 C-3.85 14.13, -3.7 12.02, -9.13 7.52 M-1.21 15.49 C-3.47 13.41, -6.12 11.18, -9.58 7.83 M0.26 11.59 C-1.44 9.42, -3.37 7.72, -7.59 5.95 M-0.18 11.43 C-1.83 9.93, -3.88 7.76, -7.45 5.58 M0.88 6.68 C-0.07 6.35, -1.36 5.31, -3.15 2.44 M0.79 6.55 C-0.04 5.69, -0.96 4.87, -3.56 2.61 M0.98 1.88 C0.62 1.29, 0.51 0.99, -0.39 0.6 M1.09 1.8 C0.92 1.38, 0.46 1.21, -0.43 0.39" stroke="#be4bdb" stroke-width="0.5" fill="none"></path><path d="M0.75 -0.11 C-13.13 11.45, -70.67 55.08, -83.65 70.46 C-96.62 85.83, -82.17 86.24, -77.1 92.12 C-72.02 98, -61.77 101.58, -53.21 105.73 C-44.64 109.88, -31.33 117.09, -25.7 117 C-20.07 116.91, -23.89 124.63, -19.44 105.18 C-15 85.73, -2.45 17.94, 0.96 0.3 M-0.32 -1.21 C-14.36 10.54, -71.99 53.6, -84.82 68.85 C-97.65 84.1, -82.65 83.99, -77.31 90.27 C-71.97 96.54, -61.23 101.99, -52.78 106.49 C-44.33 110.99, -32.41 117.57, -26.61 117.26 C-20.81 116.96, -22.15 124.34, -17.98 104.64 C-13.8 84.95, -4.64 16.77, -1.55 -0.89" stroke="#ffffff" stroke-width="1" fill="none"></path></g></g><g stroke-linecap="round"><g transform="translate(205.12372604706957 124.92404525826603) rotate(0 47.853857409821785 61.89999991399395)" fill-rule="evenodd"><path d="M0 0 C0 0, 0 0, 0 0 M0 0 C0 0, 0 0, 0 0 M-1.72 7.47 C0.86 5.24, 2.33 3.65, 4.37 1.47 M-1.32 8.35 C0.09 6.39, 1.13 4.42, 4.17 1.56 M-1.95 17.26 C-0.13 12.59, 4.85 6.15, 7.6 1.41 M-3.24 16.15 C0.31 11.37, 3.13 8.09, 8.57 2.5 M-2.86 25.04 C1.6 16.91, 7.83 10.25, 11.7 2.82 M-5.5 24.15 C-1.03 19.59, 3.62 13.61, 13.09 4.37 M-7.34 29.87 C2.45 22.2, 7.32 14.92, 17.84 7.32 M-5.58 31.74 C-0.69 25.25, 6.95 17.66, 15.03 6.15 M-9.48 41.45 C-0.72 33.43, 3.17 24.65, 21.43 8.79 M-8.09 40.45 C0.46 30.24, 9.87 19.43, 21.11 6.36 M-9.7 47.82 C-1.28 41.14, 4.82 32.92, 22.7 9.7 M-9.49 48.96 C-3.35 40.36, 4.31 30.92, 23.71 9.84 M-10.95 56.58 C1.28 39.34, 15.48 24.64, 27.48 11.37 M-11.79 55.42 C-3.31 45.77, 5.52 35.33, 28.52 9.37 M-12.62 64.43 C-2.54 54.86, 6.72 42.18, 33.36 12.45 M-13.7 64.18 C-1.49 49.08, 12.09 33.67, 31.5 11.47 M-15.67 70.39 C7.02 49.21, 27.17 24.57, 34.49 11.39 M-14.99 72.3 C3.89 51.64, 21.51 30.64, 36.41 12.08 M-15.14 80.28 C-1.01 63.07, 16.96 44.26, 39.8 13.01 M-16.29 79.33 C6.3 55.34, 27.71 28.99, 39.8 14.41 M-16.64 87.3 C-0.58 68.98, 13.66 53.62, 45.81 14.92 M-18.78 86.98 C-0.65 65.35, 17.49 44.32, 44.51 16.57 M-16.94 91.91 C4.38 67.87, 25.58 43.38, 46.79 18.08 M-16.08 90.44 C6.67 63.74, 29.82 38.1, 48.66 17.41 M-14.88 98.98 C-1.27 82.14, 13.28 65.12, 51.57 17.26 M-16.37 96.66 C9.78 69.92, 33.83 40.51, 53.16 18.25 M-16.17 103.66 C1.57 83.38, 19.86 61.04, 57.8 19.59 M-16.49 103.5 C11.22 70.9, 38.72 38.16, 56.72 20.61 M-19.72 111.68 C-1.27 94.26, 13.56 76.62, 60.65 23 M-17.45 113.29 C12.75 77.69, 43.78 39.66, 61.32 21.95 M-18.29 118.34 C5.82 91.67, 27.56 66.94, 63.09 22.75 M-16.39 117.05 C14.61 80.69, 46.63 43.31, 63.27 23.48 M-13.43 121.53 C8.77 94.07, 28.8 69.8, 68.66 25.93 M-14.74 120.78 C18.55 82.59, 50.9 44.3, 68.61 25.85 M-11.46 124.48 C6.97 101.62, 25.93 82.47, 71.66 25.98 M-11.46 123.47 C6.87 102.11, 27.03 80.4, 72.21 26.92 M-7.97 124.23 C18.78 93.11, 43.9 64.61, 77.97 29.14 M-6.79 124.78 C17.07 98.31, 39.86 71.24, 77.23 27.5 M-2.94 123.16 C16.29 103.41, 32.73 83.77, 79.25 28.98 M-2.61 125.86 C21.47 96.01, 46.49 69.05, 80.09 29.15 M4.74 123.22 C24.26 100.97, 45.86 77.82, 85.71 32.93 M3.76 124.79 C28.07 95.61, 53.89 67.39, 84.03 31.86 M8.08 123.2 C28.22 103.25, 49 80.66, 88.35 32.7 M9.19 123.14 C32.96 96.19, 56.5 68.44, 88.06 33.82 M14.23 124.71 C40.64 96.47, 64 65.69, 91.74 34.87 M15.62 123.19 C37.3 97.7, 59.68 70.42, 92.49 33.21 M19.2 120.94 C47.6 93.44, 71.22 63.28, 96.22 35.32 M19.64 121.92 C46.28 93.96, 71.43 62.48, 95.9 35.92 M24.78 124.16 C53.41 94.59, 77.57 61, 98.04 38.53 M26.09 121.76 C51.91 91.7, 78.4 62.78, 100.04 38.02 M28.72 123.72 C45.44 106.89, 60.56 91.68, 102.19 41.05 M29.02 123.87 C45.84 106.87, 60.46 89.05, 103.37 38.56 M38.05 123.25 C60.78 96.72, 84.51 72.06, 106.62 43.23 M37.75 120.59 C64.66 92.27, 90.04 62.35, 108.06 40.57 M47.54 116.78 C61.06 100.65, 74.32 87.05, 109.67 41.8 M46.08 118.76 C61.81 100, 78.23 80.24, 110.15 42.76 M54.36 116.39 C65.9 100.83, 75.47 87.47, 111.65 48.55 M53.7 114.67 C75.27 90.33, 96.13 65.42, 111.92 47.58 M112.56 47.43 C113.35 46.34, 113.69 45.56, 114.15 45.24 M112.39 47.29 C113.25 46.61, 113.77 45.77, 114.41 45.25 M60.68 111.71 C74.21 94.42, 89.48 80.47, 110.99 56.69 M61.58 110.8 C75.78 94.59, 90.4 79.87, 110.62 54.48 M-13.57 122.31 C-13.57 122.31, -13.57 122.31, -13.57 122.31 M-13.57 122.31 C-13.57 122.31, -13.57 122.31, -13.57 122.31 M-3.94 122.52 C-7.6 121.64, -10.95 119.21, -19.33 110.57 M-4.92 123.04 C-8.48 120.85, -11.86 119.49, -18.92 111.48 M-0.82 123.41 C-3.62 120.82, -10.19 115.54, -17.87 108.55 M-0.69 123.57 C-7.38 118.41, -12.71 112.68, -19.62 107.32 M3.81 120.13 C-3.7 115.56, -7.65 110.22, -19.52 103.19 M3.6 121.81 C-4.81 113.99, -13.23 107.11, -17.91 101.36 M10.33 120.08 C0.16 113.45, -7.49 107.33, -17.3 95 M10.2 122.1 C2.49 114.95, -3.4 109.45, -18.13 96.31 M13.83 121.81 C7.14 114.17, -3.63 104.93, -18.06 91.44 M15.65 121.25 C4.49 110.87, -7.26 101.97, -18.24 92.34 M22.08 121.33 C9.95 111.45, 2.05 101.21, -18.73 88.01 M21.44 120.19 C9.68 110.78, -3.15 99.6, -17.28 87.53 M27.04 120.68 C15.93 108.61, 2.53 98.92, -18.07 81.35 M28.21 121.73 C11.86 106.75, -4.23 92.66, -16.39 82.27 M31.8 120.4 C20.33 106.71, 5.39 95.7, -15.68 79.11 M31.5 118.34 C16.37 105.53, 2.06 92.79, -15.04 78.32 M35.16 116 C20.27 102.95, 1.66 87.07, -13.2 75.75 M35.03 117.82 C17.42 103.15, -0.41 86.55, -13.52 73.88 M40.34 116.46 C21.8 98.4, 3.66 82.51, -15.65 68.43 M40.2 117.09 C22.62 100.11, 3.19 84.52, -13.5 68.74 M45.72 116.15 C29.99 103.45, 19.33 92.14, -12.83 64.07 M45.55 115.33 C31.17 102.84, 16.19 89.39, -12.68 64.57 M48.84 111.22 C30.83 94.59, 8.91 78.1, -12.39 59.97 M49.54 113.64 C36.2 100.14, 22.13 88.42, -11.13 60.84 M54.95 109.51 C36.88 99.39, 20.45 84.26, -9.32 54.92 M53.79 112.19 C29.76 90.5, 8.05 71.08, -10 57.09 M57.18 107.66 C33 91.4, 11.22 69.83, -11.92 52.37 M58.11 108.59 C30.45 86.34, 5.41 64.65, -10.77 51.44 M60.1 107.68 C35.65 82.83, 7.19 60.77, -7.32 47.56 M60.68 107.68 C38.03 87.02, 14.5 67.53, -8.02 46.93 M66.45 104.7 C37.88 82.58, 8.92 57.86, -6.48 44.12 M65.62 104.59 C43.62 85.2, 21.36 66.83, -7.64 43.35 M67.67 102.18 C48.48 87.81, 29.38 69.52, -5.7 37.13 M68.22 103.14 C40.03 78.9, 11.51 55.74, -7.64 37.6 M74.06 99.79 C44.98 77.35, 19.79 58.13, -4.58 32.36 M71.92 100.98 C51.12 83.96, 31.53 65.66, -7.34 34.13 M75.64 98.48 C48.36 73.34, 20.94 52.8, -3.58 29.37 M75.84 99.95 C44.43 70.93, 11.31 42.58, -6.14 29.34 M77.85 97.7 C56.25 74.95, 35.04 57.76, -4.97 26.09 M77.24 96.52 C60.42 80.25, 43.15 63.56, -3.81 25.34 M80.02 94.59 C47.72 67.56, 17.67 37.34, -2.35 21.92 M80.81 92.2 C59.32 74.42, 37.63 54.48, -3.18 20.4 M84.69 90.4 C48.55 61.32, 15.39 30.46, -2.66 16.94 M82.66 89.29 C53.61 65.15, 25.06 39.05, -3.42 15.3 M85.81 87.77 C51.94 56.37, 19.74 29.79, 0.36 11.03 M85.3 87.32 C52.98 57.38, 21.31 29.6, -0.79 11.77 M88.98 83.77 C60.87 60.31, 30.17 32.19, 1.11 8.41 M88.67 85.42 C65 62.06, 38.55 39.99, -0.87 6.3 M92 79.87 C73.2 65.28, 51.74 44.18, 0.67 0.82 M91.35 81.47 C68 59.86, 43.62 40.64, 0.64 2.47 M92.83 78.31 C76.09 63.65, 54.89 46.04, 1.57 -0.71 M95.35 77.78 C70.56 56.95, 47.45 37.57, 1.49 -1.93 M97.34 75.37 C77.23 55.52, 56.38 40.02, 13.03 3.24 M96.6 75.55 C78.97 59.31, 60.79 44.55, 12.88 1.41 M98.59 73.09 C71.51 48.99, 43.53 23.69, 24.34 6.68 M98.93 71.93 C69.48 45.45, 39.39 19.81, 23.56 4.76 M99.07 67.26 C84.4 53.79, 67.44 40.94, 32.79 10.95 M101.09 69.13 C85.36 53.96, 71.4 42.06, 34.52 10.38 M103.41 64.42 C87.4 52.35, 74.8 39.83, 44.81 12.75 M102.25 64.8 C81.41 46.35, 57.42 25.13, 44.9 13.75 M103.69 60.49 C93.11 48.81, 77.04 39.93, 53.77 18.63 M105.99 61.82 C93.63 51.47, 80.42 40.02, 54.48 17.31 M108.65 59.19 C92.05 46.89, 81.42 34.45, 65.71 23.41 M108.29 58.03 C97.02 48.87, 87.58 40.46, 66.26 22.21 M107.7 52.59 C103.18 47.37, 93.71 41.67, 78.34 26.77 M108.31 53.97 C96.11 43.29, 83.69 32.66, 76.11 26.06 M112.18 51.55 C103.07 42.29, 94.3 34.02, 86.78 27.74 M112.39 50.63 C104.39 43.49, 96.13 37.52, 87.32 28.69 M111.83 47.66 C107.15 43.84, 100.05 37.12, 96.61 34.46 M113.23 46.6 C109.56 42.79, 105.3 40.46, 96.36 33.2" stroke="#4c6ef5" stroke-width="0.5" fill="none"></path><path d="M-0.11 -0.43 C-3.39 18.32, -21.99 92.72, -18.56 113.23 C-15.13 133.74, 9.89 122.28, 20.48 122.65 C31.06 123.01, 36.21 118.84, 44.94 115.42 C53.67 112, 64.5 108.07, 72.85 102.14 C81.2 96.21, 89.65 86.44, 95.04 79.84 C100.44 73.24, 102.49 67.86, 105.23 62.53 C107.97 57.2, 111.67 51.84, 111.51 47.89 C111.34 43.93, 122.69 46.86, 104.23 38.82 C85.76 30.78, 18.16 6.21, 0.71 -0.37 M-1.62 -1.69 C-5.07 16.67, -22.63 91.3, -18.99 111.66 C-15.35 132.03, 9.56 120.19, 20.2 120.49 C30.84 120.78, 35.73 116.41, 44.85 113.43 C53.96 110.44, 66.84 108.26, 74.92 102.58 C82.99 96.89, 88.12 86.12, 93.3 79.31 C98.49 72.5, 102.61 67, 106.03 61.72 C109.44 56.44, 114.37 51.68, 113.79 47.61 C113.22 43.54, 121.83 45.4, 102.56 37.3 C83.3 29.19, 15.35 5.2, -1.81 -1.02" stroke="#ffffff" stroke-width="1" fill="none"></path></g></g><g transform="translate(62.5 245.54706030074394) rotate(0 31 12.5)"><text x="31" y="18" font-family="Virgil, Segoe UI Emoji" font-size="20px" fill="#ffffff" text-anchor="middle" style="white-space: pre;" direction="ltr">People</text></g><g transform="translate(344 51.04706030074394) rotate(0 49 12.5)"><text x="49" y="18" font-family="Virgil, Segoe UI Emoji" font-size="20px" fill="#ffffff" text-anchor="middle" style="white-space: pre;" direction="ltr">Creativity</text></g><g transform="translate(289 242.04706030074394) rotate(0 59 12.5)"><text x="59" y="18" font-family="Virgil, Segoe UI Emoji" font-size="20px" fill="#ffffff" text-anchor="middle" style="white-space: pre;" direction="ltr">Management</text></g><g transform="translate(10 35.04706030074394) rotate(0 40 12.5)"><text x="40" y="18" font-family="Virgil, Segoe UI Emoji" font-size="20px" fill="#ffffff" text-anchor="middle" style="white-space: pre;" direction="ltr">Tehnical</text></g></svg>